<svg height="511pt" viewBox="0 -2 511.99698 511" width="511pt" xmlns="http://www.w3.org/2000/svg"><path d="m402.675781 423.363281h-294.015625c-13.078125 0-23.777344-10.699219-23.777344-23.777343v-294.015626c0-13.078124 10.699219-23.78125 23.777344-23.78125h294.015625c13.082031 0 23.78125 10.703126 23.78125 23.78125v294.015626c0 13.078124-10.699219 23.777343-23.78125 23.777343zm0 0" fill="#d0cfd1"/><path d="m402.675781 81.789062h-22.867187c13.082031 0 23.78125 10.703126 23.78125 23.78125v294.015626c0 13.078124-10.699219 23.78125-23.78125 23.78125h22.867187c13.082031 0 23.78125-10.703126 23.78125-23.78125v-294.015626c0-13.078124-10.699219-23.78125-23.78125-23.78125zm0 0" fill="#a0a0a0"/><path d="m336.042969 252.578125c0 44.386719-35.984375 80.371094-80.375 80.371094-44.386719 0-80.371094-35.984375-80.371094-80.371094 0-44.390625 35.984375-80.375 80.371094-80.375 44.390625 0 80.375 35.984375 80.375 80.375zm0 0" fill="#fff4f1"/><path d="m255.667969 172.203125c-3.882813 0-7.695313.292969-11.433594.824219 38.972656 5.554687 68.941406 39.046875 68.941406 79.550781s-29.96875 73.996094-68.941406 79.546875c3.738281.53125 7.550781.824219 11.433594.824219 44.390625 0 80.375-35.984375 80.375-80.375 0-44.386719-35.984375-80.371094-80.375-80.371094zm0 0" fill="#ecedef"/><path d="m139.546875 121.976562c0 8.683594-7.039063 15.722657-15.722656 15.722657-8.683594 0-15.726563-7.039063-15.726563-15.722657 0-8.683593 7.042969-15.726562 15.726563-15.726562 8.683593 0 15.722656 7.042969 15.722656 15.726562zm0 0" fill="#646464"/><path d="m403 121.976562c0 8.683594-7.039062 15.722657-15.722656 15.722657s-15.726563-7.039063-15.726563-15.722657c0-8.683593 7.042969-15.726562 15.726563-15.726562s15.722656 7.042969 15.722656 15.726562zm0 0" fill="#646464"/><path d="m139.546875 381.738281c0 8.683594-7.039063 15.722657-15.722656 15.722657-8.683594 0-15.726563-7.039063-15.726563-15.722657 0-8.683593 7.042969-15.722656 15.726563-15.722656 8.683593 0 15.722656 7.039063 15.722656 15.722656zm0 0" fill="#646464"/><path d="m403 381.738281c0 8.683594-7.039062 15.722657-15.722656 15.722657s-15.726563-7.039063-15.726563-15.722657c0-8.683593 7.042969-15.722656 15.726563-15.722656s15.722656 7.039063 15.722656 15.722656zm0 0" fill="#646464"/><path d="m149.191406 27.09375c0 10.296875-8.347656 18.640625-18.640625 18.640625s-18.636719-8.34375-18.636719-18.640625c0-10.292969 8.34375-18.636719 18.636719-18.636719s18.640625 8.34375 18.640625 18.636719zm0 0" fill="#f45a3c"/><path d="m389.023438 26.59375c0 10.292969-8.347657 18.640625-18.640626 18.640625-10.292968 0-18.640624-8.347656-18.640624-18.640625s8.347656-18.640625 18.640624-18.640625c10.292969 0 18.640626 8.347656 18.640626 18.640625zm0 0" fill="#f45a3c"/><path d="m504.042969 134.03125c0 10.296875-8.34375 18.640625-18.640625 18.640625-10.292969 0-18.636719-8.34375-18.636719-18.640625 0-10.292969 8.34375-18.636719 18.636719-18.636719 10.296875 0 18.640625 8.34375 18.640625 18.636719zm0 0" fill="#f45a3c"/><path d="m504.542969 373.863281c0 10.292969-8.34375 18.640625-18.636719 18.640625-10.296875 0-18.640625-8.347656-18.640625-18.640625s8.34375-18.636719 18.640625-18.636719c10.292969 0 18.636719 8.34375 18.636719 18.636719zm0 0" fill="#f45a3c"/><path d="m397.105469 479.9375c0 10.292969-8.34375 18.636719-18.640625 18.636719-10.292969 0-18.636719-8.34375-18.636719-18.636719 0-10.296875 8.34375-18.640625 18.636719-18.640625 10.296875 0 18.640625 8.34375 18.640625 18.640625zm0 0" fill="#f45a3c"/><path d="m157.273438 480.4375c0 10.292969-8.34375 18.640625-18.640626 18.640625-10.292968 0-18.636718-8.347656-18.636718-18.640625s8.34375-18.640625 18.636718-18.640625c10.296876 0 18.640626 8.347656 18.640626 18.640625zm0 0" fill="#f45a3c"/><path d="m45.234375 381.945312c0 10.296876-8.34375 18.640626-18.636719 18.640626-10.296875 0-18.640625-8.34375-18.640625-18.640626 0-10.292968 8.34375-18.636718 18.640625-18.636718 10.292969 0 18.636719 8.34375 18.636719 18.636718zm0 0" fill="#f45a3c"/><path d="m44.734375 142.113281c0 10.296875-8.34375 18.640625-18.640625 18.640625-10.292969 0-18.636719-8.34375-18.636719-18.640625 0-10.292969 8.34375-18.636719 18.636719-18.636719 10.296875 0 18.640625 8.34375 18.640625 18.636719zm0 0" fill="#f45a3c"/><g fill="#18191b"><path d="m167.839844 252.578125c0 48.429687 39.402344 87.828125 87.828125 87.828125 48.429687 0 87.828125-39.398438 87.828125-87.828125s-39.398438-87.828125-87.828125-87.828125c-48.425781 0-87.828125 39.398438-87.828125 87.828125zm160.746094 0c0 40.203125-32.710938 72.914063-72.917969 72.914063s-72.914063-32.710938-72.914063-72.914063c0-40.207031 32.707032-72.917969 72.914063-72.917969s72.917969 32.710938 72.917969 72.917969zm0 0"/><path d="m123.824219 98.796875c-12.78125 0-23.179688 10.398437-23.179688 23.179687s10.398438 23.179688 23.179688 23.179688c12.777343 0 23.179687-10.398438 23.179687-23.179688s-10.402344-23.179687-23.179687-23.179687zm0 31.445313c-4.558594 0-8.269531-3.707032-8.269531-8.265626 0-4.558593 3.710937-8.269531 8.269531-8.269531 4.554687 0 8.265625 3.710938 8.265625 8.269531 0 4.558594-3.710938 8.265626-8.265625 8.265626zm0 0"/><path d="m387.277344 98.796875c-12.78125 0-23.179688 10.398437-23.179688 23.179687s10.398438 23.179688 23.179688 23.179688c12.777344 0 23.179687-10.398438 23.179687-23.179688s-10.402343-23.179687-23.179687-23.179687zm0 31.445313c-4.558594 0-8.269532-3.707032-8.269532-8.265626 0-4.558593 3.710938-8.269531 8.269532-8.269531 4.554687 0 8.265625 3.710938 8.265625 8.269531 0 4.558594-3.707031 8.265626-8.265625 8.265626zm0 0"/><path d="m123.824219 358.558594c-12.78125 0-23.179688 10.398437-23.179688 23.179687s10.398438 23.179688 23.179688 23.179688c12.777343 0 23.179687-10.398438 23.179687-23.179688s-10.402344-23.179687-23.179687-23.179687zm0 31.445312c-4.558594 0-8.269531-3.707031-8.269531-8.265625 0-4.558593 3.710937-8.269531 8.269531-8.269531 4.554687 0 8.265625 3.710938 8.265625 8.269531 0 4.558594-3.710938 8.265625-8.265625 8.265625zm0 0"/><path d="m387.277344 358.558594c-12.78125 0-23.179688 10.398437-23.179688 23.179687s10.398438 23.179688 23.179688 23.179688c12.777344 0 23.179687-10.398438 23.179687-23.179688s-10.402343-23.179687-23.179687-23.179687zm0 31.445312c-4.558594 0-8.269532-3.707031-8.269532-8.265625 0-4.558593 3.710938-8.269531 8.269532-8.269531 4.554687 0 8.265625 3.710938 8.265625 8.269531 0 4.558594-3.707031 8.265625-8.265625 8.265625zm0 0"/><path d="m285.261719 253.222656c0 16.957032-13.796875 30.75-30.753907 30.75-16.957031 0-30.753906-13.792968-30.753906-30.75 0-8.828125 3.800782-17.238281 10.429688-23.082031 3.089844-2.722656 3.386718-7.433594.664062-10.523437-2.726562-3.089844-7.4375-3.386719-10.523437-.664063-9.839844 8.671875-15.480469 21.164063-15.480469 34.269531 0 25.179688 20.484375 45.667969 45.664062 45.667969 25.183594 0 45.667969-20.488281 45.667969-45.667969 0-12.613281-5.289062-24.78125-14.511719-33.390625-3.011718-2.808593-7.730468-2.648437-10.539062.363281-2.8125 3.011719-2.648438 7.726563.363281 10.539063 6.300781 5.882813 9.773438 13.867187 9.773438 22.488281zm0 0"/><path d="m247.050781 211.628906v28.964844c0 4.121094 3.339844 7.457031 7.457031 7.457031 4.117188 0 7.457032-3.335937 7.457032-7.457031v-28.964844c0-4.117187-3.339844-7.457031-7.457032-7.457031-4.117187 0-7.457031 3.339844-7.457031 7.457031zm0 0"/><path d="m485.902344 347.769531c-11.796875 0-21.785156 7.871094-25.003906 18.636719h-22.5625c-1.660157 0-3.183594.550781-4.421876 1.464844v-67.570313c0-4.117187-3.339843-7.453125-7.457031-7.453125-4.117187 0-7.457031 3.335938-7.457031 7.453125v99.285157c0 9-7.320312 16.324218-16.324219 16.324218h-294.015625c-9 0-16.320312-7.324218-16.320312-16.324218v-207.691407c0-4.117187-3.339844-7.453125-7.457032-7.453125-4.117187 0-7.457031 3.335938-7.457031 7.453125v89.691407h-50.828125c-4.121094 0-7.457031 3.339843-7.457031 7.457031v67.898437c-10.765625 3.21875-18.640625 13.207032-18.640625 25.003906 0 14.390626 11.707031 26.097657 26.097656 26.097657 14.386719 0 26.09375-11.707031 26.09375-26.097657 0-11.796874-7.871094-21.785156-18.640625-25.003906v-60.441406h43.375v103.085938c0 17.222656 14.011719 31.234374 31.234375 31.234374h22.808594c-.1875.652344-.292969 1.335938-.292969 2.050782v22.5625c-10.765625 3.21875-18.636719 13.207031-18.636719 25.003906 0 14.390625 11.707032 26.09375 26.09375 26.09375 14.390626 0 26.09375-11.707031 26.09375-26.09375 0-11.796875-7.871093-21.789062-18.636718-25.003906v-22.5625c0-.714844-.105469-1.398438-.292969-2.050782h132.308594v49.117188c0 4.117188 3.335937 7.457031 7.453125 7.457031h67.902344c3.214843 10.765625 13.203124 18.636719 25.003906 18.636719 14.386718 0 26.09375-11.707031 26.09375-26.09375 0-14.390625-11.707032-26.097656-26.09375-26.097656-11.800782 0-21.789063 7.875-25.003906 18.640625h-60.445313v-41.660157h109.660156c17.222657 0 31.234375-14.011718 31.234375-31.234374v-19.730469c1.238282.917969 2.765625 1.464843 4.421875 1.464843h22.566407c3.214843 10.765626 13.203124 18.640626 25.003906 18.640626 14.386718 0 26.09375-11.707032 26.09375-26.097657 0-14.386719-11.703125-26.09375-26.09375-26.09375zm-448.125 34.175781c0 6.167969-5.015625 11.183594-11.179688 11.183594-6.167968 0-11.183594-5.015625-11.183594-11.183594 0-6.164062 5.015626-11.183593 11.183594-11.183593 6.164063 0 11.179688 5.019531 11.179688 11.183593zm112.039062 98.492188c0 6.167969-5.015625 11.183594-11.183594 11.183594-6.164062 0-11.179687-5.015625-11.179687-11.183594 0-6.164062 5.015625-11.183594 11.179687-11.183594 6.167969 0 11.183594 5.019532 11.183594 11.183594zm228.648438-11.683594c6.167968 0 11.183594 5.015625 11.183594 11.183594 0 6.164062-5.015626 11.183594-11.183594 11.183594-6.164063 0-11.179688-5.019532-11.179688-11.183594 0-6.167969 5.015625-11.183594 11.179688-11.183594zm107.4375-83.707031c-6.164063 0-11.179688-5.011719-11.179688-11.175781 0-.003906 0-.003906 0-.007813v-.003906c0-6.164063 5.015625-11.179687 11.179688-11.179687 6.167968 0 11.183594 5.019531 11.183594 11.183593 0 6.167969-5.015626 11.183594-11.183594 11.183594zm0 0"/><path d="m26.09375 168.210938c11.800781 0 21.789062-7.871094 25.003906-18.640626h26.328125v12.5c0 4.117188 3.335938 7.457032 7.457031 7.457032 4.117188 0 7.453126-3.339844 7.453126-7.457032v-56.5c0-9 7.324218-16.320312 16.324218-16.320312h294.015625c9 0 16.324219 7.320312 16.324219 16.320312v164.910157c0 4.117187 3.335938 7.453125 7.457031 7.453125 4.117188 0 7.453125-3.335938 7.453125-7.453125v-36.085938h51.492188c4.117187 0 7.457031-3.339843 7.457031-7.457031v-67.898438c10.765625-3.21875 18.636719-13.207031 18.636719-25.003906 0-14.390625-11.703125-26.097656-26.09375-26.097656s-26.09375 11.707031-26.09375 26.097656c0 11.796875 7.871094 21.785156 18.636718 25.003906v60.441407h-44.03125v-113.910157c0-17.222656-14.015624-31.234374-31.238281-31.234374h-24.84375c0-.058594.007813-.117188.007813-.175782v-22.5625c10.765625-3.214844 18.640625-13.207031 18.640625-25.003906 0-14.390625-11.707031-26.09375-26.097657-26.09375-14.386718 0-26.09375 11.703125-26.09375 26.09375 0 11.796875 7.871094 21.789062 18.636719 25.003906v22.5625c0 .058594.007813.117188.011719.175782h-132.027344v-47.242188c0-4.117188-3.335937-7.457031-7.457031-7.457031h-67.898437c-3.214844-10.765625-13.203126-18.636719-25.003907-18.636719-14.390625 0-26.09375 11.707031-26.09375 26.09375 0 14.390625 11.703125 26.097656 26.09375 26.097656 11.800781 0 21.789063-7.875 25.003907-18.640625h60.445312v39.785157h-107.339844c-17.222656 0-31.234375 14.011718-31.234375 31.234374v29.089844h-26.328125c-3.214844-10.769531-13.203125-18.640625-25.003906-18.640625-14.386719 0-26.09375 11.707031-26.09375 26.09375 0 14.390625 11.707031 26.097657 26.09375 26.097657zm448.128906-34.179688c0-6.164062 5.015625-11.179688 11.179688-11.179688 6.167968 0 11.183594 5.015626 11.183594 11.179688 0 6.167969-5.015626 11.183594-11.183594 11.183594-6.164063 0-11.179688-5.015625-11.179688-11.183594zm-115.023437-107.4375c0-6.167969 5.019531-11.183594 11.183593-11.183594 6.167969 0 11.183594 5.015625 11.183594 11.183594 0 6.164062-5.015625 11.183594-11.183594 11.183594-6.164062 0-11.183593-5.019532-11.183593-11.183594zm-228.648438 11.683594c-6.164062 0-11.183593-5.015625-11.183593-11.183594 0-6.164062 5.019531-11.183594 11.183593-11.183594 6.167969 0 11.183594 5.019532 11.183594 11.183594 0 6.167969-5.015625 11.183594-11.183594 11.183594zm-104.457031 92.65625c6.167969 0 11.183594 5.015625 11.183594 11.179687 0 6.167969-5.015625 11.183594-11.183594 11.183594-6.164062 0-11.179688-5.015625-11.179688-11.183594 0-6.164062 5.015626-11.179687 11.179688-11.179687zm0 0"/></g></svg>