<svg height="512pt" viewBox="0 -43 512 512" width="512pt" xmlns="http://www.w3.org/2000/svg"><path d="m48 66.605469h416v288h-416zm0 0" fill="#adc4d9"/><path d="m48 66.605469h56v288h-56zm0 0" fill="#8ca4b8"/><path d="m80 98.605469h352v224h-352zm0 0" fill="#74e0e3"/><path d="m80 98.605469h24v224h-24zm0 0" fill="#00c9d4"/><g fill="#fff"><path d="m216 283.105469h16v15h-16zm0 0"/><path d="m248 283.105469h16v15h-16zm0 0"/><path d="m280 283.105469h16v15h-16zm0 0"/></g><path d="m224 178.605469 64 32-64 32zm0 0" fill="#ff866e"/><path d="m224 402.605469c0 8.835937-7.164062 16-16 16s-16-7.164063-16-16c0-8.835938 7.164062-16 16-16s16 7.164062 16 16zm0 0" fill="#fff"/><path d="m472 146.605469h-32v-40l32 16zm0 0" fill="#ffeb99"/><path d="m344 146.605469h32v-40l-32 16zm0 0" fill="#ffeb99"/><path d="m384 146.605469h48v24h-48zm0 0" fill="#ffd422"/><path d="m440 146.605469h-64v-104l32-32 32 32zm0 0" fill="#ff866e"/><path d="m376 42.605469 32-32 32 32" fill="#ffeb99"/><path d="m471 154.605469h8v-36.632813l-8-4v-54.367187h-24v-20.105469l-39.5-39.5-39.5 39.5v20.105469h-328v303h431zm-24-80h9v31.867187l-9-4.5zm-39-52.890625 13.894531 13.890625h-27.789062zm-25 28.890625h49v89h-49zm41 104v9h-33v-9zm32 193h-401v-273h313v27.367187l-32 16v36.632813h40v24h63v-24h17zm-88-228.863281v20.863281h-17v-12.363281zm96 20.863281h-17v-20.863281l17 8.5zm0 0"/><path d="m424 315.605469h-337v-209h257v-15h-272v239h367v-136h-15zm0 0"/><path d="m304.269531 210.605469-88.269531-44.132813v88.269532zm-73.269531-19.863281 39.730469 19.863281-39.730469 19.867187zm0 0"/><path d="m230.265625 395.605469c-3.136719-10-11.929687-16-22.265625-16s-19.128906 6-22.265625 16h-121.734375v15h121.734375c3.136719 9 11.929687 16 22.265625 16s19.128906-7 22.265625-16h281.734375v-15zm-22.265625 15.5c-4.6875 0-8.5-3.8125-8.5-8.5s3.8125-8.5 8.5-8.5 8.5 3.8125 8.5 8.5-3.8125 8.5-8.5 8.5zm0 0"/><path d="m0 386.605469h15v32h-15zm0 0"/><path d="m32 386.605469h15v32h-15zm0 0"/><path d="m400 67.105469h16v15h-16zm0 0" fill="#fff"/></svg>